<?xml version="1.0" encoding="UTF-8"?>
<svg version="1.1" xmlns="http://www.w3.org/2000/svg" width="600" height="600">
<path d="M0 0 C198 0 396 0 600 0 C600 198 600 396 600 600 C402 600 204 600 0 600 C0 402 0 204 0 0 Z " fill="#FEFEFE" transform="translate(0,0)"/>
<path d="M0 0 C9.51622151 4.91212116 14.63457327 12.0047644 19.1171875 21.51953125 C19.60790741 22.53033752 20.09862732 23.5411438 20.60421753 24.58258057 C22.20158848 27.88070486 23.77847429 31.18818498 25.35546875 34.49609375 C26.46788869 36.80196042 27.5817562 39.10712927 28.69702148 41.41162109 C30.95501505 46.08165819 33.20565984 50.75512089 35.45019531 55.43164062 C38.34060357 61.4490057 41.25747835 67.45296847 44.19140625 73.44921875 C44.61851395 74.32213058 45.04562164 75.19504242 45.485672 76.09440613 C46.32433119 77.80797687 47.16309952 79.5214942 48.00198364 81.23495483 C56.9404544 99.5060284 65.80603104 117.81281151 74.66796875 136.12109375 C71.96611055 138.82295195 69.00083377 139.2357745 65.39453125 140.1015625 C64.67437836 140.27867264 63.95422546 140.45578278 63.21224976 140.63825989 C61.68827381 141.01073166 60.16339092 141.3795091 58.63769531 141.74487305 C56.3061001 142.3054367 53.97928999 142.88337067 51.65234375 143.46289062 C50.17083078 143.82267805 48.68906739 144.1814362 47.20703125 144.5390625 C46.51211578 144.71293991 45.81720032 144.88681732 45.10122681 145.06596375 C41.61612889 145.8855653 39.02428177 146.4853751 35.66796875 145.12109375 C34.4079895 143.41168213 34.4079895 143.41168213 33.32470703 141.15332031 C32.70151581 139.88090988 32.70151581 139.88090988 32.06573486 138.58279419 C31.62767517 137.65183929 31.18961548 136.7208844 30.73828125 135.76171875 C30.27089539 134.79748993 29.80350952 133.83326111 29.32196045 132.83981323 C27.79894531 129.68981351 26.29601061 126.53066569 24.79296875 123.37109375 C23.75409748 121.21403967 22.71389232 119.05762751 21.67236328 116.90185547 C19.11687297 111.60515998 16.57650985 106.30139199 14.04174805 100.99475098 C11.17577103 94.9997301 8.28825856 89.01509014 5.40130615 83.03015137 C4.56994775 81.30216971 3.74410827 79.57153619 2.91845703 77.84082031 C-1.66910623 67.29773383 -1.66910623 67.29773383 -8.33203125 58.12109375 C-10.69960452 57.28567521 -10.69960452 57.28567521 -13.33203125 58.12109375 C-18.32363935 65.24470884 -22.10814457 73.14894833 -26.07421875 80.875 C-26.44224483 81.5890909 -26.81027092 82.3031818 -27.18944931 83.03891182 C-32.60950441 93.56823367 -37.79886003 104.19066888 -42.84287262 114.90464401 C-44.95901726 119.38630607 -47.10401013 123.85426928 -49.24834061 128.32250023 C-51.06357274 132.11240928 -52.8554294 135.91085036 -54.60791016 139.73022461 C-56.35499487 143.53432675 -58.1560615 147.30823102 -59.99663925 151.06793404 C-60.67449868 152.4773148 -61.33266568 153.89636734 -61.96902847 155.32496452 C-63.93909218 159.73143546 -65.91527617 163.62910532 -69.33203125 167.12109375 C-74.44055651 168.84051272 -78.93854948 169.04529626 -84.33203125 169.12109375 C-85.32203125 169.45109375 -86.31203125 169.78109375 -87.33203125 170.12109375 C-86.74292969 171.0853125 -86.15382813 172.04953125 -85.546875 173.04296875 C-84.78711013 174.31862334 -84.02803113 175.5946866 -83.26953125 176.87109375 C-82.87958984 177.5053125 -82.48964844 178.13953125 -82.08789062 178.79296875 C-79.25707496 183.60285023 -79.25707496 183.60285023 -79.61825562 186.10003281 C-80.33223519 188.12167121 -81.14222798 189.99319195 -82.10009766 191.91119385 C-82.46710281 192.65084381 -82.83410797 193.39049377 -83.2122345 194.15255737 C-83.61528305 194.95460602 -84.0183316 195.75665466 -84.43359375 196.58300781 C-84.85819382 197.43571259 -85.28279388 198.28841736 -85.72026062 199.16696167 C-87.12849313 201.99224271 -88.54257378 204.81454966 -89.95703125 207.63671875 C-90.94318632 209.61037715 -91.92910391 211.58415423 -92.91479492 213.55804443 C-94.98698078 217.70536855 -97.06205943 221.85122907 -99.13916016 225.99609375 C-101.7792003 231.264875 -104.41214349 236.53716356 -107.04284668 241.81061172 C-109.08190739 245.89603054 -111.12484495 249.97950152 -113.16888428 254.06243134 C-114.13951518 256.0023733 -115.10898991 257.94289425 -116.07720947 259.88404083 C-120.66738518 269.08177927 -125.29743796 278.24452534 -130.30859375 287.22167969 C-130.67112747 287.87454075 -131.03366119 288.52740181 -131.40718079 289.20004654 C-134.13052992 294.00294551 -136.54934011 297.36313074 -141.33203125 300.12109375 C-143.02972656 301.11689453 -143.02972656 301.11689453 -144.76171875 302.1328125 C-164.01653362 312.83955807 -181.84297462 311.75913883 -202.95703125 306.99609375 C-203.65379974 306.84114441 -204.35056824 306.68619507 -205.06845093 306.52655029 C-234.65287764 299.90736377 -262.19488579 288.05273771 -285.33203125 268.12109375 C-286.49798828 267.13689453 -286.49798828 267.13689453 -287.6875 266.1328125 C-292.70511866 261.804381 -297.15326048 257.25949872 -301.33203125 252.12109375 C-302.10417969 251.18652344 -302.87632812 250.25195312 -303.671875 249.2890625 C-318.7621531 230.64017272 -327.92805458 208.64048257 -332.33203125 185.12109375 C-332.59367065 183.81833496 -332.59367065 183.81833496 -332.8605957 182.48925781 C-334.38672534 174.32531779 -334.7733962 166.28902513 -334.76953125 157.99609375 C-334.77026642 157.30366577 -334.77100159 156.61123779 -334.77175903 155.89782715 C-334.67103616 119.41840482 -321.45270342 81.82036276 -297.33203125 54.12109375 C-296.61144531 53.2909375 -295.89085937 52.46078125 -295.1484375 51.60546875 C-292.91050658 49.0766456 -290.63510826 46.59065825 -288.33203125 44.12109375 C-287.63464844 43.36957031 -286.93726563 42.61804688 -286.21875 41.84375 C-271.94158544 26.99236675 -254.37468962 16.63536272 -235.33203125 9.12109375 C-234.35105469 8.73179688 -233.37007813 8.3425 -232.359375 7.94140625 C-214.73635514 1.54655516 -196.97015278 0.51303392 -178.40234375 0.58984375 C-176.06875447 0.58714146 -173.73516629 0.58325295 -171.40158081 0.57824707 C-166.55585815 0.57240307 -161.71043369 0.58075962 -156.86474609 0.59960938 C-150.65980334 0.62257546 -144.45554613 0.60913248 -138.25062752 0.58531952 C-133.45163788 0.5708752 -128.65281149 0.57545826 -123.85381699 0.58583069 C-121.56450188 0.5884925 -119.2751718 0.5852475 -116.98587418 0.57591248 C-113.79893706 0.56575006 -110.61312293 0.58123665 -107.42626953 0.60351562 C-106.4880838 0.5954187 -105.54989807 0.58732178 -104.58328247 0.57897949 C-98.86049007 0.6530678 -95.73766659 1.39759063 -91.33203125 5.12109375 C-87.54253456 9.76170734 -86.74732402 14.93646923 -87.0078125 20.79296875 C-87.73156976 25.9900691 -90.21083603 29.96955503 -94.33203125 33.12109375 C-97.35121191 33.47471461 -99.99353021 33.58728245 -103.00585938 33.51171875 C-103.88139969 33.50587769 -104.75694 33.50003662 -105.65901184 33.49401855 C-107.56172185 33.47879779 -109.46437514 33.45433425 -111.36686707 33.42175293 C-114.39724 33.37051962 -117.42690797 33.34458497 -120.4576416 33.32519531 C-127.99900343 33.27178678 -135.53971192 33.17593221 -143.08062744 33.07958984 C-149.4328205 32.99984968 -155.78474395 32.93758317 -162.13731384 32.89733887 C-165.08849543 32.87184769 -168.03855211 32.82178867 -170.98937988 32.77050781 C-187.20853338 32.59546829 -202.72990307 35.00891319 -218.08203125 40.37109375 C-219.37633057 40.81388672 -219.37633057 40.81388672 -220.69677734 41.265625 C-250.85290284 51.91748385 -275.12027799 71.73571139 -290.08203125 100.12109375 C-298.59264453 117.99632649 -300.38512522 134.76133393 -300.51953125 154.24609375 C-300.53258301 155.34236084 -300.54563477 156.43862793 -300.55908203 157.56811523 C-300.56652812 164.64456004 -299.87903478 171.21836268 -298.33203125 178.12109375 C-298.16566162 178.87583984 -297.99929199 179.63058594 -297.82788086 180.40820312 C-295.16600088 191.83506165 -291.00913633 201.88568869 -285.33203125 212.12109375 C-284.74164063 213.21421875 -284.15125 214.30734375 -283.54296875 215.43359375 C-279.74696106 222.22827418 -275.37560564 228.20591136 -270.33203125 234.12109375 C-269.74035156 234.8584375 -269.14867187 235.59578125 -268.5390625 236.35546875 C-257.20079387 249.9904016 -240.72368659 260.8576452 -223.859375 266.26953125 C-221.33203125 267.12109375 -221.33203125 267.12109375 -217.98046875 268.62109375 C-209.14065845 272.25544831 -198.85680408 273.62772422 -189.33203125 274.12109375 C-187.47771484 274.25257813 -187.47771484 274.25257813 -185.5859375 274.38671875 C-176.45864394 274.85657823 -168.79609276 273.87293236 -161.33203125 268.12109375 C-155.27499288 262.25847312 -151.23301559 255.94851678 -147.51953125 248.43359375 C-147.01309082 247.43682617 -146.50665039 246.44005859 -145.98486328 245.41308594 C-144.41930534 242.32284879 -142.87355505 239.22337956 -141.33203125 236.12109375 C-140.37799661 234.21334536 -139.42358095 232.30578746 -138.46875 230.3984375 C-137.08765212 227.63648445 -135.70833347 224.8737151 -134.33447266 222.1081543 C-131.04604639 215.49878406 -127.63537165 208.96298863 -124.17138672 202.44433594 C-120.78961463 196.05314575 -117.54926141 189.59644024 -114.33203125 183.12109375 C-110.36519524 175.13707319 -106.3065281 167.21506686 -102.12109375 159.34375 C-98.75494999 152.98666958 -95.5326165 146.56288082 -92.33203125 140.12109375 C-88.36519211 132.13707487 -84.30652811 124.21506687 -80.12109375 116.34375 C-76.21619651 108.96921476 -72.50789415 101.50047151 -68.79516602 94.02783203 C-65.31081904 87.03230532 -61.71860928 80.10381428 -58.05078125 73.203125 C-54.88302009 67.22182517 -51.84220911 61.18303815 -48.83203125 55.12109375 C-44.56333873 46.53040635 -40.18565961 38.00744108 -35.671875 29.54296875 C-34.14408303 26.67640291 -32.65869954 23.79448319 -31.2109375 20.88671875 C-26.90164633 12.31900494 -22.44727853 5.6038153 -14.39453125 0.12109375 C-9.37994758 -1.51632133 -5.00688532 -1.88701708 0 0 Z " fill="#1771A2" transform="translate(364.33203125,97.87890625)"/>
<path d="M0 0 C3.80637527 1.02122263 5.42852713 3.54520225 7.5625 6.6875 C9.93230729 10.92034677 12.06312255 15.26549557 14.1875 19.625 C14.81072955 20.88918718 15.43451694 22.1530995 16.05883789 23.41674805 C20.65319706 32.73780137 25.15139602 42.10524116 29.609375 51.4921875 C33.28423094 59.22178956 37.01902199 66.92238179 40.75 74.625 C41.09054413 75.32823395 41.43108826 76.0314679 41.7819519 76.75601196 C43.70809228 80.73351839 45.63494837 84.71067724 47.5625 88.6875 C55.67171857 87.13529451 63.710767 85.3159314 71.75 83.4375 C72.4042395 83.28476624 73.058479 83.13203247 73.73254395 82.97467041 C86.06571387 80.08999206 98.33594571 76.99575031 110.5625 73.6875 C111.33384277 73.47915527 112.10518555 73.27081055 112.89990234 73.05615234 C127.64744824 69.05458073 142.3058982 64.72588048 156.95703125 60.38671875 C158.16746094 60.03222656 159.37789062 59.67773438 160.625 59.3125 C161.62660156 59.01601562 162.62820313 58.71953125 163.66015625 58.4140625 C166.94258965 57.5923497 170.20788225 57.11467979 173.5625 56.6875 C152.63485114 73.20566449 121.36650119 82.69325632 96.5625 91.6875 C95.25928223 92.18715528 93.95723458 92.68987104 92.65625 93.1953125 C85.02460081 96.14758742 77.3810811 98.75173757 69.49633789 100.95141602 C66.18501356 101.88078979 62.96160296 102.88498063 59.75390625 104.12890625 C54.76090332 106.04606877 49.64054705 107.47337775 44.5 108.9375 C37.37486209 110.98656283 30.26644348 113.07187058 23.1862793 115.27148438 C11.81901156 118.80110228 0.36839003 121.93980383 -11.14892578 124.93530273 C-17.07253626 126.48325838 -22.91534371 128.07087724 -28.67236328 130.16308594 C-30.4375 130.6875 -30.4375 130.6875 -33.4375 130.6875 C-33.18693848 131.18196121 -32.93637695 131.67642242 -32.67822266 132.18586731 C-30.07578284 137.32446883 -27.48174218 142.46724577 -24.89257812 147.61254883 C-23.92468395 149.53323414 -22.95464027 151.4528378 -21.98242188 153.37133789 C-20.58680187 156.1262633 -19.19891259 158.88496316 -17.8125 161.64453125 C-17.37502441 162.50399857 -16.93754883 163.36346588 -16.48681641 164.24897766 C-16.08640137 165.04958115 -15.68598633 165.85018463 -15.2734375 166.67504883 C-14.91813965 167.3789827 -14.5628418 168.08291656 -14.19677734 168.80818176 C-13.4375 170.6875 -13.4375 170.6875 -13.4375 173.6875 C-21.0275 176.9875 -28.6175 180.2875 -36.4375 183.6875 C-39.55203471 180.57296529 -41.0916168 178.89261804 -43.03125 175.22265625 C-43.49781006 174.35133057 -43.96437012 173.48000488 -44.44506836 172.58227539 C-44.9375708 171.64762451 -45.43007324 170.71297363 -45.9375 169.75 C-47.00994025 167.74904577 -48.08420463 165.74906829 -49.16015625 163.75 C-49.70559082 162.73550781 -50.25102539 161.72101563 -50.81298828 160.67578125 C-53.26687236 156.16187366 -55.81302107 151.70320689 -58.375 147.25 C-59.35817367 145.5391204 -60.34124512 143.82818204 -61.32421875 142.1171875 C-61.82356934 141.24803711 -62.32291992 140.37888672 -62.83740234 139.48339844 C-65.80822855 134.29238506 -68.74697904 129.08322109 -71.6875 123.875 C-72.26105225 122.85929932 -72.83460449 121.84359863 -73.42553711 120.79711914 C-74.76327312 118.42747991 -76.10062363 116.05762429 -77.4375 113.6875 C-73.56426689 111.55647406 -70.03938756 111.25993913 -65.6875 111.0625 C-64.99011719 111.02382813 -64.29273438 110.98515625 -63.57421875 110.9453125 C-61.86239182 110.85151376 -60.14998318 110.76843826 -58.4375 110.6875 C-58.0582135 109.44144234 -58.0582135 109.44144234 -57.67126465 108.17021179 C-56.28595276 104.25970742 -54.56171306 100.66316733 -52.69726562 96.96411133 C-52.32289368 96.21346909 -51.94852173 95.46282684 -51.56280518 94.68943787 C-50.32701686 92.21416582 -49.08549853 89.74181797 -47.84375 87.26953125 C-46.9734623 85.53015023 -46.10347228 83.79062023 -45.23376465 82.0509491 C-43.4070149 78.39901325 -41.5775903 74.74843445 -39.74609375 71.09887695 C-37.42708949 66.47768594 -35.11322042 61.85394921 -32.80124664 57.22923756 C-31.00101208 53.62904413 -29.19867085 50.0299086 -27.39567566 46.43109703 C-26.54381958 44.73051607 -25.69241198 43.02971037 -24.84150696 41.32865334 C-20.317312 32.28863377 -15.74597511 23.27329973 -11.08398438 14.3034668 C-10.67782143 13.51297093 -10.27165848 12.72247507 -9.85318756 11.90802479 C-4.24818929 1.19820724 -4.24818929 1.19820724 0 0 Z " fill="#F37931" transform="translate(353.4375,154.3125)"/>
<path d="M0 0 C-11.97498527 6.33026018 -23.98356181 12.59325214 -36.01367188 18.81811523 C-42.62982047 22.2440688 -49.22919764 25.69894259 -55.8125 29.1875 C-69.63707042 36.49293638 -83.64235087 43.44606682 -97.75 50.1875 C-98.554375 50.57429932 -99.35875 50.96109863 -100.1875 51.35961914 C-105.7618404 54 -105.7618404 54 -108 54 C-97.05088567 76.99809124 -85.95048011 99.92203093 -74.73046875 122.7890625 C-74.18215393 123.90667969 -73.63383911 125.02429688 -73.06890869 126.17578125 C-70.337717 131.74165739 -67.60459132 137.30657309 -64.86865234 142.87011719 C-62.37121817 147.95056038 -59.88570832 153.03670637 -57.40606689 158.12585449 C-56.01799484 160.9632167 -54.61487727 163.7927762 -53.21044922 166.62207031 C-52.36754804 168.34409964 -51.52522909 170.06641414 -50.68359375 171.7890625 C-50.29228775 172.5671225 -49.90098175 173.3451825 -49.49781799 174.14682007 C-46.92323826 179.46855284 -46.92323826 179.46855284 -47.3106842 182.15097046 C-48 184 -48 184 -49.58203125 185.265625 C-55.6527815 187.94483527 -61.38979439 188.41947292 -67.9375 188.5 C-69.16980347 188.52755371 -69.16980347 188.52755371 -70.42700195 188.55566406 C-77.01769937 188.49066064 -83.49622695 187.85030793 -89 184 C-92.44451142 179.23751733 -94.6675617 174.0591108 -97 168.6875 C-97.71167814 167.12656015 -98.4275103 165.5675084 -99.1472168 164.01025391 C-100.6666915 160.71592115 -102.16899033 157.4144849 -103.66162109 154.10791016 C-107.14174124 146.44849523 -110.87556296 138.91261568 -114.58926392 131.36456299 C-116.6010231 127.27017657 -118.59763722 123.16843792 -120.59375 119.06640625 C-120.97352493 118.28634216 -121.35329987 117.50627808 -121.74458313 116.70257568 C-125.58727277 108.80378038 -129.39308862 100.88748996 -133.1730957 92.95849609 C-135.98382838 87.07193786 -138.88921869 81.24283362 -141.86987305 75.44018555 C-143 73 -143 73 -143 71 C-145.97 71.99 -148.94 72.98 -152 74 C-150.35649143 79.61968332 -147.79880037 84.6400544 -145.16015625 89.83984375 C-144.67856552 90.79782364 -144.19697479 91.75580353 -143.70079041 92.74281311 C-142.15849944 95.80964293 -140.6109236 98.87376254 -139.0625 101.9375 C-132.56075502 114.82056788 -126.13258567 127.72683699 -119.93702698 140.76034546 C-115.73739842 149.58519972 -111.39174045 158.33204011 -107 167.0625 C-106.25631381 168.54482325 -105.51282449 170.02724529 -104.76953125 171.50976562 C-103.42307214 174.19469517 -102.0755414 176.87907977 -100.7265625 179.56274414 C-99.59848609 181.80852861 -98.49196175 184.0653044 -97.41015625 186.33374023 C-95.93396886 189.1248487 -94.65454552 190.35235106 -92 192 C-92.33 193.98 -92.66 195.96 -93 198 C-96.99925517 197.40751775 -99.11396109 195.80176553 -102 193 C-104.18381011 189.47308789 -105.97491882 185.7705645 -107.7890625 182.04296875 C-108.33299652 180.9489827 -108.87693054 179.85499664 -109.43734741 178.7278595 C-111.17788812 175.21988014 -112.90145297 171.70385448 -114.625 168.1875 C-115.76065032 165.89465279 -116.8973593 163.60232961 -118.03515625 161.31054688 C-123.84276172 149.58703449 -129.54415393 137.81541151 -135.16862488 126.00308228 C-139.15706445 117.63791819 -143.27141336 109.3403018 -147.4375 101.0625 C-148.12454711 99.6934588 -148.8113955 98.32431785 -149.49804688 96.95507812 C-150.78002026 94.39936474 -152.06299261 91.84415843 -153.34716797 89.28955078 C-155.23667233 85.52896263 -157.11978484 81.76523906 -159 78 C-164.02325789 78.72343065 -168.51249358 80.67831944 -173.1875 82.5625 C-174.80475649 83.21271091 -176.4231935 83.8599956 -178.04296875 84.50390625 C-178.75477295 84.79080322 -179.46657715 85.0777002 -180.19995117 85.37329102 C-182 86 -182 86 -184 86 C-183.67314209 86.62342285 -183.34628418 87.2468457 -183.00952148 87.88916016 C-179.83230754 93.95307438 -176.66554484 100.02232369 -173.50927734 106.09716797 C-172.5898503 107.86552571 -171.66874132 109.63301201 -170.74462891 111.39892578 C-169.73833567 113.3244163 -168.74216262 115.25470174 -167.75 117.1875 C-167.20859375 118.23292969 -166.6671875 119.27835937 -166.109375 120.35546875 C-165 123 -165 123 -165 127 C-167.91236539 128.65353259 -170.83058604 130.29644905 -173.75 131.9375 C-174.9875 132.64036133 -174.9875 132.64036133 -176.25 133.35742188 C-177.04921875 133.80537109 -177.8484375 134.25332031 -178.671875 134.71484375 C-179.4050293 135.12855225 -180.13818359 135.54226074 -180.89355469 135.96850586 C-182.9300979 136.96577001 -184.78593284 137.542747 -187 138 C-187.38631592 137.30253662 -187.77263184 136.60507324 -188.1706543 135.88647461 C-195.05379761 123.46470277 -201.94717192 111.04938726 -208.9375 98.6875 C-209.73389893 97.27839355 -209.73389893 97.27839355 -210.54638672 95.84082031 C-212.87520068 91.72719163 -215.21376738 87.62004908 -217.5859375 83.53125 C-217.96758057 82.87165283 -218.34922363 82.21205566 -218.74243164 81.5324707 C-219.72655525 79.83568263 -220.71651662 78.14228396 -221.70703125 76.44921875 C-223 74 -223 74 -223 72 C-220.96842896 71.39052869 -218.93685575 70.78106461 -216.90527344 70.17163086 C-215.11161792 69.63350122 -213.31799905 69.09524944 -211.52441406 68.55688477 C-206.94419082 67.18225981 -202.36349455 65.80927948 -197.78125 64.44140625 C-186.83788308 61.1721282 -175.92526014 57.81698675 -165.03369141 54.37939453 C-158.46773223 52.30823134 -151.90443771 50.24702926 -145.28396606 48.35572815 C-134.60364564 45.28919521 -124.12084366 41.70297672 -113.625 38.0625 C-110.15990519 36.86281957 -106.69382483 35.666058 -103.2265625 34.47265625 C-102.37862122 34.18049225 -101.53067993 33.88832825 -100.65704346 33.58731079 C-94.74558035 31.56349107 -88.80285692 29.66174231 -82.8359375 27.80859375 C-77.31709509 26.09186403 -71.92040207 24.28166668 -66.5859375 22.04589844 C-60.31488619 19.5095329 -53.88157348 17.36602108 -47.5 15.125 C-45.97272131 14.58663482 -44.44545903 14.04822312 -42.91821289 13.50976562 C-34.42173391 10.51981235 -25.90900833 7.59591617 -17.33959961 4.82055664 C-13.63250087 3.60412844 -10.09505381 2.21733987 -6.5625 0.5625 C-3 -1 -3 -1 0 0 Z " fill="#6DBC53" transform="translate(568,222)"/>
<path d="M0 0 C7.13687116 14.1717646 14.22331518 28.35701319 21.0246582 42.69360352 C24.10435745 49.1699551 27.27495024 55.59489852 30.5 62 C34.64622337 70.24045418 38.68921164 78.52353392 42.63769531 86.8605957 C45.00078217 91.84478336 47.39223458 96.8121173 49.84489441 101.75276184 C51.16253551 104.40811026 52.47162644 107.06763933 53.78060913 109.7272644 C54.42336302 111.02699715 55.07031657 112.32466204 55.72158813 113.62014771 C56.63237704 115.43283792 57.52746947 117.253389 58.421875 119.07421875 C58.94362305 120.12182373 59.46537109 121.16942871 60.00292969 122.2487793 C61.04486188 125.1237876 61.22740133 126.24041699 60 129 C54.4222885 133.4621692 46.86924175 133.41628716 40.0625 133.5 C38.83019653 133.52755371 38.83019653 133.52755371 37.57299805 133.55566406 C30.98230063 133.49066064 24.50377305 132.85030793 19 129 C15.55548858 124.23751733 13.3324383 119.0591108 11 113.6875 C10.28832186 112.12656015 9.5724897 110.5675084 8.8527832 109.01025391 C7.3333085 105.71592115 5.83100967 102.4144849 4.33837891 99.10791016 C0.85825876 91.44849523 -2.87556296 83.91261568 -6.58926392 76.36456299 C-8.6010231 72.27017657 -10.59763722 68.16843792 -12.59375 64.06640625 C-12.97352493 63.28634216 -13.35329987 62.50627808 -13.74458313 61.70257568 C-17.58727277 53.80378038 -21.39308862 45.88748996 -25.1730957 37.95849609 C-25.59679443 37.0711377 -26.02049316 36.1837793 -26.45703125 35.26953125 C-26.86260254 34.41955566 -27.26817383 33.56958008 -27.68603516 32.69384766 C-29.679287 28.60734806 -31.77310179 24.57208137 -33.86987305 20.5378418 C-35 18 -35 18 -35 15 C-28.8252848 11.8656268 -22.65594574 8.76523609 -16.30078125 6.01171875 C-14.55870442 5.24567817 -12.82892154 4.45160023 -11.10546875 3.64453125 C-9.63013672 2.95423828 -9.63013672 2.95423828 -8.125 2.25 C-7.22007812 1.82203125 -6.31515625 1.3940625 -5.3828125 0.953125 C-3 0 -3 0 0 0 Z " fill="#1771A2" transform="translate(460,277)"/>
<path d="M0 0 C3.80637527 1.02122263 5.42852713 3.54520225 7.5625 6.6875 C9.93230729 10.92034677 12.06312255 15.26549557 14.1875 19.625 C14.81072955 20.88918718 15.43451694 22.1530995 16.05883789 23.41674805 C20.65423898 32.73991522 25.15483143 42.10880876 29.609375 51.5 C31.90340289 56.32681537 34.23514798 61.13433764 36.578125 65.9375 C37.27550366 67.36936935 37.97285068 68.80125411 38.67016602 70.2331543 C39.70520626 72.3582492 40.74150852 74.48267779 41.7819519 76.60513306 C42.74740868 78.57493643 43.70812121 80.54699 44.66796875 82.51953125 C45.22637451 83.66139893 45.78478027 84.8032666 46.36010742 85.97973633 C47.5625 88.6875 47.5625 88.6875 47.5625 90.6875 C43.9325 91.0175 40.3025 91.3475 36.5625 91.6875 C36.14452148 90.85081787 35.72654297 90.01413574 35.29589844 89.15209961 C31.4535301 81.46315421 27.60547196 73.7770841 23.75256348 66.09341431 C21.68484341 61.96912727 19.61836211 57.84422042 17.55237579 53.71906471 C16.02278432 50.66512756 14.4924217 47.61158142 12.96044922 44.55883789 C11.16409267 40.97915109 9.37103854 37.39781876 7.578125 33.81640625 C7.03327454 32.73186661 6.48842407 31.64732697 5.92706299 30.52992249 C2.98423694 24.64470246 0.16298347 18.73235025 -2.4375 12.6875 C-4.4175 13.6775 -4.4175 13.6775 -6.4375 14.6875 C-4.69945616 20.69823494 -1.88749033 26.13841246 0.875 31.7265625 C1.40335449 32.80263763 1.93170898 33.87871277 2.47607422 34.98739624 C4.16800161 38.43085528 5.86524602 41.87166382 7.5625 45.3125 C8.67351023 47.57275294 9.78419047 49.83316812 10.89453125 52.09375 C17.2037943 64.93264066 17.2037943 64.93264066 23.60546875 77.72558594 C24.07452637 78.65551361 24.54358398 79.58544128 25.02685547 80.54354858 C25.90372842 82.27849698 26.78407907 84.01169356 27.66845703 85.74282837 C28.05243652 86.50235809 28.43641602 87.26188782 28.83203125 88.04443359 C29.16823486 88.70398041 29.50443848 89.36352722 29.85083008 90.0430603 C30.5625 91.6875 30.5625 91.6875 30.5625 93.6875 C18.52459406 96.86326049 6.42118583 99.39113335 -5.8125 101.6875 C-7.18382584 101.94696411 -7.18382584 101.94696411 -8.58285522 102.21166992 C-19.94763672 104.3595014 -31.31890298 106.42244101 -42.75 108.1875 C-43.78495605 108.34734375 -44.81991211 108.5071875 -45.88623047 108.671875 C-50.1243837 109.2987821 -54.14529418 109.75969379 -58.4375 109.6875 C-51.00251902 93.67168701 -43.11450032 77.88633006 -35.20874023 62.09960938 C-33.7362117 59.15911172 -32.26551073 56.21771261 -30.79663086 53.27539062 C-16.94455026 25.52822065 -16.94455026 25.52822065 -10.65234375 13.4375 C-10.2724379 12.69967285 -9.89253204 11.9618457 -9.50111389 11.20166016 C-4.23718552 1.19510361 -4.23718552 1.19510361 0 0 Z " fill="#FAFCFC" transform="translate(353.4375,154.3125)"/>
<path d="M0 0 C8.600625 -0.12375 8.600625 -0.12375 17.375 -0.25 C19.16341309 -0.28641602 20.95182617 -0.32283203 22.79443359 -0.36035156 C35.10314975 -0.50695829 44.68517965 1.32619955 54 10 C62.08110693 18.66749111 63.67359528 27.62948138 63.28125 39.19140625 C62.60582602 48.33777258 58.88464151 56.5248494 52.04296875 62.79296875 C35.8531965 75.32998167 22.6412063 71 0 71 C0 47.57 0 24.14 0 0 Z " fill="#1972A3" transform="translate(250,432)"/>
<path d="M0 0 C4.62 0 9.24 0 14 0 C14.825 1.77117187 15.65 3.54234375 16.5 5.3671875 C17.35685077 7.20525036 18.21370807 9.04331017 19.07067871 10.88131714 C19.69013698 12.21024756 20.30935907 13.5392881 20.92834473 14.86843872 C24.73027221 23.0318129 28.55516053 31.18350049 32.421875 39.31640625 C33.50999104 41.61002092 34.59778716 43.90378712 35.68554688 46.1975708 C36.39128963 47.6826656 37.09895164 49.16684997 37.80859375 50.65008545 C38.8094874 52.74234267 39.80375116 54.83763979 40.796875 56.93359375 C41.23975861 57.85223961 41.23975861 57.85223961 41.69158936 58.78944397 C43.58441924 62.80480502 44.88138651 66.72256679 46 71 C42.04 71 38.08 71 34 71 C32.99515796 69.04414675 31.99626195 67.08523763 31 65.125 C30.443125 64.03445313 29.88625 62.94390625 29.3125 61.8203125 C28 59 28 59 28 57 C14.14 57 0.28 57 -14 57 C-14.66 58.98 -15.32 60.96 -16 63 C-17.2459004 65.71915488 -18.62499215 68.34165149 -20 71 C-23.96 71 -27.92 71 -32 71 C-31.19922844 66.99614222 -30.47572135 64.56652534 -28.734375 61.02734375 C-28.26273926 60.05893555 -27.79110352 59.09052734 -27.30517578 58.09277344 C-26.79196777 57.0515332 -26.27875977 56.01029297 -25.75 54.9375 C-24.65724612 52.69218814 -23.56616356 50.44606229 -22.4765625 48.19921875 C-21.62239746 46.43843994 -21.62239746 46.43843994 -20.75097656 44.64208984 C-17.80801344 38.54313464 -14.96898796 32.39554825 -12.125 26.25 C-11.60260742 25.12198975 -11.08021484 23.99397949 -10.54199219 22.83178711 C-9.02619246 19.55535366 -7.51264794 16.27788963 -6 13 C-5.42807443 11.761061 -4.85613402 10.52212885 -4.28417969 9.28320312 C-2.85585739 6.18892319 -1.42789281 3.09447815 0 0 Z " fill="#1D75A5" transform="translate(447,432)"/>
<path d="M0 0 C10 0 10 0 13.109375 2.8671875 C14.02214533 4.18109238 14.90078245 5.51915146 15.75 6.875 C16.75909462 8.3481551 17.77092489 9.81943919 18.78515625 11.2890625 C19.30480957 12.0615332 19.82446289 12.83400391 20.35986328 13.62988281 C23.13176014 17.63547596 26.16661437 21.4308195 29.1875 25.25 C34.56239952 32.09323444 39.77648733 39.03531645 45 46 C45.33 30.82 45.66 15.64 46 0 C50.29 0 54.58 0 59 0 C59 23.43 59 46.86 59 71 C49 71 49 71 45.3828125 67.625 C44.26425349 66.10683595 43.1796888 64.56321077 42.125 63 C41.5362207 62.18635986 40.94744141 61.37271973 40.34082031 60.53442383 C39.12685939 58.85454588 37.92566931 57.16536659 36.73730469 55.46728516 C34.63219771 52.47765459 32.44168309 49.56063695 30.23388672 46.64648438 C28.84847362 44.81750203 27.47763406 42.97854776 26.109375 41.13671875 C21.78810155 35.38768787 17.3850354 29.70054601 13 24 C12.67 39.51 12.34 55.02 12 71 C8.04 71 4.08 71 0 71 C0 47.57 0 24.14 0 0 Z " fill="#1C74A4" transform="translate(142,432)"/>
<path d="M0 0 C26.45614035 0 26.45614035 0 33.0234375 5.78125 C33.46945312 6.3484375 33.91546875 6.915625 34.375 7.5 C34.83648437 8.0671875 35.29796875 8.634375 35.7734375 9.21875 C40.3465897 15.86001562 39.61720907 23.2308808 39 31 C37.44967443 36.98108556 34.08029477 40.51352319 29 44 C22 47 22 47 0 47 C0 31.49 0 15.98 0 0 Z " fill="#F9FBFC" transform="translate(262,444)"/>
<path d="M0 0 C3.96 0 7.92 0 12 0 C12 23.43 12 46.86 12 71 C8.04 71 4.08 71 0 71 C0 47.57 0 24.14 0 0 Z " fill="#1771A2" transform="translate(359,432)"/>
<path d="M0 0 C3.96 0 7.92 0 12 0 C12 23.43 12 46.86 12 71 C8.04 71 4.08 71 0 71 C0 47.57 0 24.14 0 0 Z " fill="#1771A3" transform="translate(78,432)"/>
<path d="M0 0 C1.47634888 1.86367798 1.47634888 1.86367798 2.68798828 4.33837891 C3.15262482 5.26510406 3.61726135 6.19182922 4.09597778 7.14663696 C4.82577347 8.6712001 4.82577347 8.6712001 5.5703125 10.2265625 C6.09205048 11.28040131 6.61378845 12.33424011 7.15133667 13.42001343 C8.82624093 16.81361009 10.47569111 20.21890242 12.125 23.625 C13.21191835 25.83543438 14.30044402 28.04507917 15.390625 30.25390625 C21.05100503 41.75275704 26.59080891 53.30848063 32.10452271 64.87818909 C36.29746609 73.65986213 40.62704976 82.36939368 45 91.0625 C45.74368619 92.54482325 46.48717551 94.02724529 47.23046875 95.50976562 C48.57692786 98.19469517 49.9244586 100.87907977 51.2734375 103.56274414 C52.40151391 105.80852861 53.50803825 108.0653044 54.58984375 110.33374023 C56.06603114 113.1248487 57.34545448 114.35235106 60 116 C59.67 117.98 59.34 119.96 59 122 C55.00074483 121.40751775 52.88603891 119.80176553 50 117 C47.81618989 113.47308789 46.02508118 109.7705645 44.2109375 106.04296875 C43.39503647 104.40198967 43.39503647 104.40198967 42.56265259 102.7278595 C40.82211188 99.21988014 39.09854703 95.70385448 37.375 92.1875 C36.23934968 89.89465279 35.1026407 87.60232961 33.96484375 85.31054688 C28.15723828 73.58703449 22.45584607 61.81541151 16.83137512 50.00308228 C12.84293555 41.63791819 8.72858664 33.3403018 4.5625 25.0625 C3.87545289 23.6934588 3.1886045 22.32431785 2.50195312 20.95507812 C2.16795502 20.28938812 1.83395691 19.62369812 1.48983765 18.93783569 C0.84529632 17.65312221 0.20094037 16.3683157 -0.44320679 15.08340454 C-1.73847334 12.50183568 -3.03923598 9.92368356 -4.35986328 7.35498047 C-7 2.2032964 -7 2.2032964 -7 0 C-4.23984202 -1.38007899 -2.89838044 -0.95015011 0 0 Z " fill="#2278A7" transform="translate(416,298)"/>
<path d="M0 0 C3 1 3 1 4.55541992 3.63500977 C5.10818604 4.80862061 5.66095215 5.98223145 6.23046875 7.19140625 C6.53806625 7.83587204 6.84566376 8.48033783 7.1625824 9.14433289 C7.8297836 10.54476978 8.49238333 11.94740598 9.15093994 13.35192871 C10.91553107 17.11510138 12.71233705 20.86289867 14.50390625 24.61328125 C14.87267883 25.38779633 15.24145142 26.1623114 15.62139893 26.96029663 C19.82818928 35.77835447 24.21801444 44.50329878 28.62191772 53.22415161 C41 77.74300064 41 77.74300064 41 81 C38.03 81.495 38.03 81.495 35 82 C31.79746679 75.61853632 28.59735623 69.23586332 25.39999676 62.85180569 C23.91383951 59.8846187 22.42674189 56.91791262 20.93823242 53.9519043 C14.78237154 41.68450681 8.65960941 29.40274997 2.70703125 17.03515625 C2.2435881 16.07765976 1.78014496 15.12016327 1.30265808 14.13365173 C0.66908134 12.80884544 0.66908134 12.80884544 0.02270508 11.45727539 C-0.53002327 10.30528404 -0.53002327 10.30528404 -1.09391785 9.13002014 C-1.97068038 7.06892463 -2.65674681 5.21481834 -3 3 C-1.5625 1.25 -1.5625 1.25 0 0 Z " fill="#2177A6" transform="translate(349,166)"/>
<path d="M0 0 C0.66 0 1.32 0 2 0 C3.85873821 3.92928436 5.70992725 7.86200819 7.55419922 11.7980957 C8.18266751 13.13663258 8.81318926 14.47420731 9.44580078 15.81079102 C10.35470368 17.73204338 11.2561678 19.65663378 12.15625 21.58203125 C12.70087891 22.73936768 13.24550781 23.8967041 13.80664062 25.08911133 C15 28 15 28 15 31 C5.76 31 -3.48 31 -13 31 C-12.13873234 26.69366172 -11.10983972 23.7399733 -9.27734375 19.82421875 C-8.47006836 18.08881836 -8.47006836 18.08881836 -7.64648438 16.31835938 C-7.07694064 15.10801751 -6.50727769 13.89773174 -5.9375 12.6875 C-5.36343439 11.45791463 -4.7898615 10.22809909 -4.21679688 8.99804688 C-2.81602767 5.99639857 -1.41027491 2.99719095 0 0 Z " fill="#F6F9FB" transform="translate(453,446)"/>
<path d="M0 0 C0.99 0.33 1.98 0.66 3 1 C0.54429825 2.33838733 -1.91429916 3.67086232 -4.375 5 C-5.42300781 5.57234375 -5.42300781 5.57234375 -6.4921875 6.15625 C-11.7734375 9 -11.7734375 9 -14 9 C-14 8.34 -14 7.68 -14 7 C-14.66 6.67 -15.32 6.34 -16 6 C-15.01257813 5.65066406 -14.02515625 5.30132812 -13.0078125 4.94140625 C-11.71351786 4.48183786 -10.41924833 4.02219877 -9.125 3.5625 C-8.47402344 3.33240234 -7.82304688 3.10230469 -7.15234375 2.86523438 C-3.51565978 1.57839884 -3.51565978 1.57839884 0 0 Z " fill="#8ECB79" transform="translate(565,221)"/>
<path d="M0 0 C-5.445 2.475 -5.445 2.475 -11 5 C-11 4.34 -11 3.68 -11 3 C-11.99 2.67 -12.98 2.34 -14 2 C-12.42085985 1.46658816 -10.83645613 0.94874237 -9.25 0.4375 C-8.36828125 0.14746094 -7.4865625 -0.14257812 -6.578125 -0.44140625 C-4 -1 -4 -1 0 0 Z " fill="#F6975F" transform="translate(527,212)"/>
</svg>
